<svg xmlns="http://www.w3.org/2000/svg">
    <symbol id="rectangle">
        <path d="M24 0h-24v24h24v-24z"/>
    </symbol>
    <symbol id="circle">
        <circle cx="12" cy="12" r="12"/>
    </symbol>
    <symbol id="heart">
        <path d="M12 4.435c-1.989-5.399-12-4.597-12 3.568 0 4.068 3.06 9.481 12 14.997 8.94-5.516 12-10.929 12-14.997 0-8.118-10-8.999-12-3.568z"/>
    </symbol>
    <symbol id="star"> <path d="M 17.37103080749512 21.45684242248535 C 17.25930976867676 21.45686149597168 17.14686012268066 21.43727111816406 17.03681945800781 21.39862251281738 L 12.99398040771484 19.97893142700195 C 12.67378044128418 19.86649131774902 12.33936023712158 19.80949211120605 12 19.80949211120605 C 11.66063976287842 19.80949211120605 11.32621955871582 19.86649131774902 11.00603008270264 19.97893142700195 L 6.963180065155029 21.39862251281738 C 6.853179931640625 21.43725204467773 6.740690231323242 21.45684242248535 6.628849983215332 21.45684242248535 C 6.365109920501709 21.45684242248535 6.105110168457031 21.34626197814941 5.915530204772949 21.15345191955566 C 5.782949924468994 21.01861190795898 5.626140117645264 20.78506088256836 5.631999969482422 20.43821144104004 L 5.70727014541626 15.98478221893311 C 5.718329906463623 15.33009147644043 5.510280132293701 14.67940139770508 5.121439933776855 14.15256214141846 L 2.472399950027466 10.56342220306396 C 2.277849912643433 10.2998218536377 2.224679946899414 9.97004222869873 2.326550006866455 9.658661842346191 C 2.428420066833496 9.347271919250488 2.666199922561646 9.11268138885498 2.978940010070801 9.015031814575195 L 7.13709020614624 7.716681957244873 C 7.776420116424561 7.517061710357666 8.337260246276855 7.103011608123779 8.716309547424316 6.550811767578125 L 11.17553997039795 2.968111753463745 C 11.36489009857178 2.692261695861816 11.6653995513916 2.534041881561279 12 2.534041881561279 C 12.3346004486084 2.534041881561279 12.63510036468506 2.692261695861816 12.82444953918457 2.968111753463745 L 15.2836799621582 6.550801753997803 C 15.66273975372314 7.103021621704102 16.22359085083008 7.517071723937988 16.8629207611084 7.716681957244873 L 21.02106094360352 9.015031814575195 C 21.33379936218262 9.11268138885498 21.57158088684082 9.347271919250488 21.6734504699707 9.658661842346191 C 21.77532005310059 9.97004222869873 21.7221508026123 10.2998218536377 21.5275993347168 10.56342220306396 L 18.87855911254883 14.15256214141846 C 18.48971939086914 14.67940139770508 18.28166961669922 15.33009147644043 18.2927303314209 15.98478221893311 L 18.36800003051758 20.4382209777832 C 18.37385940551758 20.78494262695313 18.21706962585449 21.01845169067383 18.08451080322266 21.15329170227051 C 17.8948802947998 21.34617233276367 17.63483047485352 21.45681190490723 17.37103080749512 21.45684242248535 Z" /> </symbol>
    <!-- <g id="star">
        <path d="M 17.37103080749512 21.45684242248535 C 17.25930976867676 21.45686149597168 17.14686012268066 21.43727111816406 17.03681945800781 21.39862251281738 L 12.99398040771484 19.97893142700195 C 12.67378044128418 19.86649131774902 12.33936023712158 19.80949211120605 12 19.80949211120605 C 11.66063976287842 19.80949211120605 11.32621955871582 19.86649131774902 11.00603008270264 19.97893142700195 L 6.963180065155029 21.39862251281738 C 6.853179931640625 21.43725204467773 6.740690231323242 21.45684242248535 6.628849983215332 21.45684242248535 C 6.365109920501709 21.45684242248535 6.105110168457031 21.34626197814941 5.915530204772949 21.15345191955566 C 5.782949924468994 21.01861190795898 5.626140117645264 20.78506088256836 5.631999969482422 20.43821144104004 L 5.70727014541626 15.98478221893311 C 5.718329906463623 15.33009147644043 5.510280132293701 14.67940139770508 5.121439933776855 14.15256214141846 L 2.472399950027466 10.56342220306396 C 2.277849912643433 10.2998218536377 2.224679946899414 9.97004222869873 2.326550006866455 9.658661842346191 C 2.428420066833496 9.347271919250488 2.666199922561646 9.11268138885498 2.978940010070801 9.015031814575195 L 7.13709020614624 7.716681957244873 C 7.776420116424561 7.517061710357666 8.337260246276855 7.103011608123779 8.716309547424316 6.550811767578125 L 11.17553997039795 2.968111753463745 C 11.36489009857178 2.692261695861816 11.6653995513916 2.534041881561279 12 2.534041881561279 C 12.3346004486084 2.534041881561279 12.63510036468506 2.692261695861816 12.82444953918457 2.968111753463745 L 15.2836799621582 6.550801753997803 C 15.66273975372314 7.103021621704102 16.22359085083008 7.517071723937988 16.8629207611084 7.716681957244873 L 21.02106094360352 9.015031814575195 C 21.33379936218262 9.11268138885498 21.57158088684082 9.347271919250488 21.6734504699707 9.658661842346191 C 21.77532005310059 9.97004222869873 21.7221508026123 10.2998218536377 21.5275993347168 10.56342220306396 L 18.87855911254883 14.15256214141846 C 18.48971939086914 14.67940139770508 18.28166961669922 15.33009147644043 18.2927303314209 15.98478221893311 L 18.36800003051758 20.4382209777832 C 18.37385940551758 20.78494262695313 18.21706962585449 21.01845169067383 18.08451080322266 21.15329170227051 C 17.8948802947998 21.34617233276367 17.63483047485352 21.45681190490723 17.37103080749512 21.45684242248535 Z"/>
        <path d="M 12 3.534042358398438 C 11.99999809265137 3.534042358398438 11.99999523162842 3.534042358398438 12 3.534030914306641 L 9.540760040283203 7.116741180419922 C 9.035369873046875 7.853012084960938 8.287569999694824 8.405072212219238 7.435140609741211 8.671232223510742 L 3.27699089050293 9.969581604003906 L 5.926029205322266 13.5587215423584 C 6.444480895996094 14.26117134094238 6.721879959106445 15.12876224517822 6.707120895385742 16.00168228149414 L 6.63184928894043 20.45510101318359 C 6.63184928894043 20.45510482788086 6.63184928894043 20.45510673522949 6.63184928894043 20.45510864257813 C 6.631851196289063 20.45511054992676 6.631853103637695 20.45511245727539 6.631855010986328 20.45511245727539 C 6.631856918334961 20.45511245727539 6.631858825683594 20.45511245727539 6.631860733032227 20.45511245727539 L 10.6746997833252 19.03542137145996 C 11.10163021087646 18.88550186157227 11.54751968383789 18.80948257446289 12 18.80948257446289 C 12.45246028900146 18.80948257446289 12.89834022521973 18.8854923248291 13.3253002166748 19.03542137145996 L 17.36809158325195 20.45509147644043 C 17.36810684204102 20.45508003234863 17.36812210083008 20.45506858825684 17.36814117431641 20.45511245727539 L 17.29288101196289 16.00168228149414 C 17.27812004089355 15.12876224517822 17.55551910400391 14.26117134094238 18.07397079467773 13.5587215423584 L 20.7230110168457 9.969581604003906 L 16.56488037109375 8.671241760253906 C 15.71243953704834 8.405081748962402 14.96463966369629 7.853021621704102 14.45923042297363 7.116731643676758 L 12 3.534042358398438 M 11.99999904632568 1.53404426574707 C 12.62581729888916 1.53404426574707 13.25163459777832 1.823427200317383 13.64890956878662 2.402191162109375 L 16.10813903808594 5.984882354736328 C 16.36198997497559 6.354692459106445 16.73278045654297 6.628440856933594 17.16096115112305 6.76213264465332 L 21.31911087036133 8.060482025146484 C 22.63137054443359 8.470221519470215 23.1485595703125 10.05116176605225 22.33218002319336 11.15726184844971 L 19.68313980102539 14.7464017868042 C 19.42240905761719 15.0996618270874 19.28516960144043 15.52889156341553 19.2925910949707 15.96788215637207 L 19.36784934997559 20.42132186889648 C 19.38740158081055 21.57803535461426 18.44422340393066 22.45684432983398 17.37114906311035 22.45684432983398 C 17.15224456787109 22.45684432983398 16.92815971374512 22.42033576965332 16.70549011230469 22.34214210510254 L 12.6626501083374 20.92245101928711 C 12.44818496704102 20.84714126586914 12.22409248352051 20.80948638916016 12 20.80948638916016 C 11.77590751647949 20.80948638916016 11.55181503295898 20.84714126586914 11.3373498916626 20.92245101928711 L 7.294509887695313 22.34214210510254 C 7.071920394897461 22.42030715942383 6.847681045532227 22.45684432983398 6.628850936889648 22.45684432983398 C 5.55567741394043 22.45684432983398 4.612594604492188 21.5781192779541 4.632139205932617 20.42132186889648 L 4.70741081237793 15.96788215637207 C 4.71483039855957 15.52889156341553 4.577590942382813 15.0996618270874 4.316860198974609 14.7464017868042 L 1.667819976806641 11.15726184844971 C 0.8514404296875 10.05116176605225 1.368629455566406 8.470221519470215 2.680889129638672 8.060482025146484 L 6.839040756225586 6.76213264465332 C 7.267210006713867 6.628440856933594 7.638010025024414 6.354692459106445 7.89185905456543 5.984882354736328 L 10.3510799407959 2.402191162109375 C 10.74835968017578 1.823427200317383 11.37417984008789 1.53404426574707 11.99999904632568 1.53404426574707 Z"/>
    </g> -->
    <symbol id="arrow-down">
        <path d="M12 16l-6-6h12z"/>
    </symbol>
    <symbol id="arrow-up">
        <path d="M12 8l6 6H6z"/>
    </symbol>
    <symbol id="arrow-left">
        <path d="M16.67 0l2.83 2.829-9.339 9.175 9.339 9.167-2.83 2.829-12.17-11.996z"/>
    </symbol>
    <symbol id="arrow-right">
        <path d="M5 3l3.057-3 11.943 12-11.943 12-3.057-3 9-9z"/>
    </symbol>
    <symbol id="calendar">
        <path d="M20 20h-4v-4h4v4zm-6-10h-4v4h4v-4zm6 0h-4v4h4v-4zm-12 6h-4v4h4v-4zm6 0h-4v4h4v-4zm-6-6h-4v4h4v-4zm16-8v22h-24v-22h3v1c0 1.103.897 2 2 2s2-.897 2-2v-1h10v1c0 1.103.897 2 2 2s2-.897 2-2v-1h3zm-2 6h-20v14h20v-14zm-2-7c0-.552-.447-1-1-1s-1 .448-1 1v2c0 .552.447 1 1 1s1-.448 1-1v-2zm-14 2c0 .552-.447 1-1 1s-1-.448-1-1v-2c0-.552.447-1 1-1s1 .448 1 1v2z"/>
    </symbol>
    <!--TODO icon names are kept to match with survey designer need to rename properly both side-->
    <symbol id="icon-thumb_up">
        <path d="M21.406 9.558c-1.21-.051-2.87-.278-3.977-.744.809-3.283 1.253-8.814-2.196-8.814-1.861 0-2.351 1.668-2.833 3.329-1.548 5.336-3.946 6.816-6.4 7.401v-.73h-6v12h6v-.904c2.378.228 4.119.864 6.169 1.746 1.257.541 3.053 1.158 5.336 1.158 2.538 0 4.295-.997 5.009-3.686.5-1.877 1.486-7.25 1.486-8.25 0-1.648-1.168-2.446-2.594-2.506zm-17.406 10.442h-2v-8h2v8zm15.896-5.583s.201.01 1.069-.027c1.082-.046 1.051 1.469.004 1.563l-1.761.099c-.734.094-.656 1.203.141 1.172 0 0 .686-.017 1.143-.041 1.068-.056 1.016 1.429.04 1.551-.424.053-1.745.115-1.745.115-.811.072-.706 1.235.109 1.141l.771-.031c.822-.074 1.003.825-.292 1.661-1.567.881-4.685.131-6.416-.614-2.239-.965-4.438-1.934-6.959-2.006v-6c3.264-.749 6.328-2.254 8.321-9.113.898-3.092 1.679-1.931 1.679.574 0 2.071-.49 3.786-.921 5.533 1.061.543 3.371 1.402 6.12 1.556 1.055.059 1.024 1.455-.051 1.584l-1.394.167s-.608 1.111.142 1.116z"/>
    </symbol>
    <symbol id="icon-thumb_down">
        <path d="M24 11.936c0-1-.986-6.373-1.486-8.25-.714-2.689-2.471-3.686-5.009-3.686-2.283 0-4.079.617-5.336 1.158-2.05.883-3.791 1.519-6.169 1.746v-.904h-6v12h6v-.73c2.454.585 4.852 2.066 6.4 7.402.483 1.66.972 3.328 2.833 3.328 3.448 0 3.005-5.531 2.196-8.814 1.106-.466 2.767-.692 3.977-.744 1.426-.06 2.594-.858 2.594-2.506zm-20 .064h-2v-8h2v8zm15.755-1.302l1.394.167c1.075.129 1.105 1.525.051 1.584-2.749.154-5.06 1.013-6.12 1.556.43 1.748.92 3.463.92 5.534 0 2.505-.781 3.666-1.679.574-1.993-6.859-5.057-8.364-8.321-9.113v-6c2.521-.072 4.72-1.041 6.959-2.005 1.731-.745 4.849-1.495 6.416-.614 1.295.836 1.114 1.734.292 1.661l-.771-.032c-.815-.094-.92 1.068-.109 1.141 0 0 1.321.062 1.745.115.976.123 1.028 1.607-.04 1.551-.457-.024-1.143-.041-1.143-.041-.797-.031-.875 1.078-.141 1.172 0 0 .714.005 1.761.099s1.078 1.609-.004 1.563c-.868-.037-1.069-.027-1.069-.027-.75.005-.875 1.028-.141 1.115z"/>
    </symbol>
    <symbol id="icon-cross_icon">
        <path d="M23.954 21.03l-9.184-9.095 9.092-9.174-2.832-2.807-9.09 9.179-9.176-9.088-2.81 2.81 9.186 9.105-9.095 9.184 2.81 2.81 9.112-9.192 9.18 9.1z"/>
    </symbol>
    <symbol id="icon-ok_icon">
        <path d="M21 6.285l-11.16 12.733-6.84-6.018 1.319-1.49 5.341 4.686 9.865-11.196 1.475 1.285z"/>
    </symbol>
    <symbol id="icon-sad">
        <path d="M12 2c5.514 0 10 4.486 10 10s-4.486 10-10 10-10-4.486-10-10 4.486-10 10-10zm0-2c-6.627 0-12 5.373-12 12s5.373 12 12 12 12-5.373 12-12-5.373-12-12-12zm.001 14c-2.332 0-4.145 1.636-5.093 2.797l.471.58c1.286-.819 2.732-1.308 4.622-1.308s3.336.489 4.622 1.308l.471-.58c-.948-1.161-2.761-2.797-5.093-2.797zm-3.501-6c-.828 0-1.5.671-1.5 1.5s.672 1.5 1.5 1.5 1.5-.671 1.5-1.5-.672-1.5-1.5-1.5zm7 0c-.828 0-1.5.671-1.5 1.5s.672 1.5 1.5 1.5 1.5-.671 1.5-1.5-.672-1.5-1.5-1.5z"/>
    </symbol>
    <symbol id="icon-smile">
        <path d="M12 2c5.514 0 10 4.486 10 10s-4.486 10-10 10-10-4.486-10-10 4.486-10 10-10zm0-2c-6.627 0-12 5.373-12 12s5.373 12 12 12 12-5.373 12-12-5.373-12-12-12zm5.507 13.941c-1.512 1.195-3.174 1.931-5.506 1.931-2.334 0-3.996-.736-5.508-1.931l-.493.493c1.127 1.72 3.2 3.566 6.001 3.566 2.8 0 4.872-1.846 5.999-3.566l-.493-.493zm-9.007-5.941c-.828 0-1.5.671-1.5 1.5s.672 1.5 1.5 1.5 1.5-.671 1.5-1.5-.672-1.5-1.5-1.5zm7 0c-.828 0-1.5.671-1.5 1.5s.672 1.5 1.5 1.5 1.5-.671 1.5-1.5-.672-1.5-1.5-1.5z"/>
    </symbol>
    <symbol id="icon-happy">
        <path d="M12 2c5.514 0 10 4.486 10 10s-4.486 10-10 10-10-4.486-10-10 4.486-10 10-10zm0-2c-6.627 0-12 5.373-12 12s5.373 12 12 12 12-5.373 12-12-5.373-12-12-12zm6 14h-12c.331 1.465 2.827 4 6.001 4 3.134 0 5.666-2.521 5.999-4zm-9.5-6c-.828 0-1.5.671-1.5 1.5s.672 1.5 1.5 1.5 1.5-.671 1.5-1.5-.672-1.5-1.5-1.5zm7 0c-.828 0-1.5.671-1.5 1.5s.672 1.5 1.5 1.5 1.5-.671 1.5-1.5-.672-1.5-1.5-1.5z"/>
    </symbol>
    <symbol id="icon-star">
        <path d="M12 .587l3.668 7.568 8.332 1.151-6.064 5.828 1.48 8.279-7.416-3.967-7.417 3.967 1.481-8.279-6.064-5.828 8.332-1.151z"/>
    </symbol>
    <symbol id="icon-heart">
        <path d="M12 4.435c-1.989-5.399-12-4.597-12 3.568 0 4.068 3.06 9.481 12 14.997 8.94-5.516 12-10.929 12-14.997 0-8.118-10-8.999-12-3.568z"/>
    </symbol>
    <symbol id="chat">
        <path d="M12 3c5.514 0 10 3.592 10 8.007 0 4.917-5.145 7.961-9.91 7.961-1.937 0-3.383-.397-4.394-.644-1 .613-1.595 1.037-4.272 1.82.535-1.373.723-2.748.602-4.265-.838-1-2.025-2.4-2.025-4.872-.001-4.415 4.485-8.007 9.999-8.007zm0-2c-6.338 0-12 4.226-12 10.007 0 2.05.738 4.063 2.047 5.625.055 1.83-1.023 4.456-1.993 6.368 2.602-.47 6.301-1.508 7.978-2.536 1.418.345 2.775.503 4.059.503 7.084 0 11.91-4.837 11.91-9.961-.001-5.811-5.702-10.006-12.001-10.006zm0 14h-5v-1h5v1zm5-3h-10v-1h10v1zm0-3h-10v-1h10v1z"/>
    </symbol>
    <g id="emoji_0" data-name="0" transform="translate(-336 -205)">
        <circle id="Ellipse_126" data-name="Ellipse 126" cx="12" cy="12" r="12" transform="translate(336 205)" fill="#ffda8c"/>
        <path id="Subtraction_2" data-name="Subtraction 2" d="M10.984,0H.016A2.532,2.532,0,0,0,0,.285C0,2.333,2.468,4,5.5,4S11,2.333,11,.285A2.529,2.529,0,0,0,10.984,0Z" transform="translate(354 224) rotate(180)" fill="#707070"/>
        <path id="Path_361" data-name="Path 361" d="M346.2,212.538l4.484,1.674-4.484,1.435" transform="translate(-4.315 0.847)" fill="none" stroke="#707070" stroke-width="1"/>
        <path id="Path_362" data-name="Path 362" d="M350.68,212.538l-4.484,1.674,4.484,1.435" transform="translate(4.336 0.847)" fill="none" stroke="#707070" stroke-width="1"/>
    </g>
    <g id="emoji_1" data-name="1" transform="translate(-336 -205)">
        <circle id="Ellipse_126" data-name="Ellipse 126" cx="12" cy="12" r="12" transform="translate(336 205)" fill="#ffda8c"/>
        <ellipse id="Ellipse_127" data-name="Ellipse 127" cx="1" cy="2.5" rx="1" ry="2.5" transform="translate(343 212)" fill="#707070"/>
        <ellipse id="Ellipse_128" data-name="Ellipse 128" cx="1" cy="2.5" rx="1" ry="2.5" transform="translate(351 212)" fill="#707070"/>
        <path id="Subtraction_2" data-name="Subtraction 2" d="M10.984,0H.016A2.532,2.532,0,0,0,0,.285C0,2.333,2.468,4,5.5,4S11,2.333,11,.285A2.529,2.529,0,0,0,10.984,0Z" transform="translate(354 224) rotate(180)" fill="#707070"/>
    </g>
    <g id="emoji_2" data-name="2" transform="translate(-336 -205)">
        <circle id="Ellipse_126" data-name="Ellipse 126" cx="12" cy="12" r="12" transform="translate(336 205)" fill="#ffda8c"/>
        <circle id="Ellipse_127" data-name="Ellipse 127" cx="1" cy="1" r="1" transform="translate(343 214)" fill="#707070"/>
        <circle id="Ellipse_128" data-name="Ellipse 128" cx="1" cy="1" r="1" transform="translate(351 214)" fill="#707070"/>
        <path id="Subtraction_2" data-name="Subtraction 2" d="M6.99,0H.01C0,.1,0,.192,0,.285A3.618,3.618,0,0,0,3.5,4,3.616,3.616,0,0,0,7,.285C7,.19,7,.095,6.99,0Z" transform="translate(352 224) rotate(180)" fill="#707070"/>
    </g>
    <g id="emoji_3" data-name="3" transform="translate(-336 -205)">
        <circle id="Ellipse_126" data-name="Ellipse 126" cx="12" cy="12" r="12" transform="translate(336 205)" fill="#ffda8c"/>
        <path id="Path_357" data-name="Path 357" d="M0,0A8.1,8.1,0,0,0,2.628,2.278,5.293,5.293,0,0,0,5.434,2.9c1.291-.07,2.976-.836,4.795-2.9" transform="translate(353.119 222.889) rotate(180)" fill="none" stroke="#707070" stroke-width="1"/>
        <circle id="Ellipse_127" data-name="Ellipse 127" cx="1" cy="1" r="1" transform="translate(343 214)" fill="#707070"/>
        <circle id="Ellipse_128" data-name="Ellipse 128" cx="1" cy="1" r="1" transform="translate(351 214)" fill="#707070"/>
    </g>
    <g id="emoji_4" data-name="4" transform="translate(-336 -205)">
        <circle id="Ellipse_126" data-name="Ellipse 126" cx="12" cy="12" r="12" transform="translate(336 205)" fill="#ffda8c"/>
        <path id="Path_357" data-name="Path 357" d="M0,0A5.2,5.2,0,0,0,1.762,1.293a4.08,4.08,0,0,0,1.881.351A5.158,5.158,0,0,0,6.857,0" transform="translate(351.501 222.288) rotate(180)" fill="none" stroke="#707070" stroke-width="1"/>
        <circle id="Ellipse_127" data-name="Ellipse 127" cx="1" cy="1" r="1" transform="translate(343 214)" fill="#707070"/>
        <circle id="Ellipse_128" data-name="Ellipse 128" cx="1" cy="1" r="1" transform="translate(351 214)" fill="#707070"/>
    </g>
    <g id="emoji_5" data-name="5" transform="translate(-336 -205)">
		<circle id="Ellipse_126" data-name="Ellipse 126" cx="12" cy="12" r="12" transform="translate(336 205)" fill="#ffda8c"/>
		<circle id="Ellipse_127" data-name="Ellipse 127" cx="1" cy="1" r="1" transform="translate(343 214)" fill="#707070"/>
		<circle id="Ellipse_128" data-name="Ellipse 128" cx="1" cy="1" r="1" transform="translate(351 214)" fill="#707070"/>
		<line id="Line_3" data-name="Line 3" x2="5.22" transform="translate(345.571 222.692)" fill="none" stroke="#707070" stroke-width="1"/>
  	</g>
    <g id="emoji_6" data-name="6" transform="translate(-336 -205)">
        <circle id="Ellipse_126" data-name="Ellipse 126" cx="12" cy="12" r="12" transform="translate(336 205)" fill="#ffda8c"/>
        <path id="Path_357" data-name="Path 357" d="M0,1.65A5.2,5.2,0,0,1,1.762.356,4.08,4.08,0,0,1,3.643,0,5.158,5.158,0,0,1,6.857,1.65" transform="translate(351.501 222.288) rotate(180)" fill="none" stroke="#707070" stroke-width="1"/>
        <circle id="Ellipse_127" data-name="Ellipse 127" cx="1" cy="1" r="1" transform="translate(343 214)" fill="#707070"/>
        <circle id="Ellipse_128" data-name="Ellipse 128" cx="1" cy="1" r="1" transform="translate(351 214)" fill="#707070"/>
    </g>
    <g id="emoji_7" data-name="7" transform="translate(-336 -205)">
        <circle id="Ellipse_126" data-name="Ellipse 126" cx="12" cy="12" r="12" transform="translate(336 205)" fill="#ffda8c"/>
        <path id="Path_357" data-name="Path 357" d="M0,2.922A8.145,8.145,0,0,1,2.642.631,5.322,5.322,0,0,1,5.464.009c1.3.07,2.993.841,4.822,2.913" transform="translate(353.215 222.989) rotate(180)" fill="none" stroke="#707070" stroke-width="1"/>
        <circle id="Ellipse_127" data-name="Ellipse 127" cx="1" cy="1" r="1" transform="translate(343 214)" fill="#707070"/>
        <circle id="Ellipse_128" data-name="Ellipse 128" cx="1" cy="1" r="1" transform="translate(351 214)" fill="#707070"/>
    </g>
    <g id="emoji_8" data-name="8" transform="translate(-336 -205)">
        <circle id="Ellipse_126" data-name="Ellipse 126" cx="12" cy="12" r="12" transform="translate(336 205)" fill="#ffda8c"/>
        <circle id="Ellipse_127" data-name="Ellipse 127" cx="1" cy="1" r="1" transform="translate(343 214)" fill="#707070"/>
        <circle id="Ellipse_128" data-name="Ellipse 128" cx="1" cy="1" r="1" transform="translate(351 214)" fill="#707070"/>
        <path id="Subtraction_2" data-name="Subtraction 2" d="M6.99,4H.01C0,3.9,0,3.808,0,3.715A3.618,3.618,0,0,1,3.5,0,3.616,3.616,0,0,1,7,3.715C7,3.81,7,3.9,6.99,4Z" transform="translate(352 224) rotate(180)" fill="#707070"/>
    </g>
    <g id="emoji_9" data-name="9" transform="translate(-336 -205)">
        <circle id="Ellipse_126" data-name="Ellipse 126" cx="12" cy="12" r="12" transform="translate(336 205)" fill="#ffda8c"/>
        <ellipse id="Ellipse_127" data-name="Ellipse 127" cx="1" cy="2.5" rx="1" ry="2.5" transform="translate(343 212)" fill="#707070"/>
        <ellipse id="Ellipse_128" data-name="Ellipse 128" cx="1" cy="2.5" rx="1" ry="2.5" transform="translate(351 212)" fill="#707070"/>
        <path id="Subtraction_2" data-name="Subtraction 2" d="M10.984,4H.016A2.522,2.522,0,0,1,0,3.715C0,1.666,2.468,0,5.5,0S11,1.666,11,3.715A2.526,2.526,0,0,1,10.984,4Z" transform="translate(354 224) rotate(180)" fill="#707070"/>
    </g>
    <g id="emoji_10" data-name="10" transform="translate(-336 -205)">
        <circle id="Ellipse_126" data-name="Ellipse 126" cx="12" cy="12" r="12" transform="translate(336 205)" fill="#ffda8c"/>
        <path id="Subtraction_2" data-name="Subtraction 2" d="M10.984,4H.016A2.522,2.522,0,0,1,0,3.715C0,1.666,2.468,0,5.5,0S11,1.666,11,3.715A2.526,2.526,0,0,1,10.984,4Z" transform="translate(354 224) rotate(180)" fill="#707070"/>
        <path id="Path_360" data-name="Path 360" d="M351.24,223.029" transform="translate(-6.531 -7.727)" fill="none" stroke="#707070" stroke-width="1"/>
        <g id="Group_817" data-name="Group 817" transform="translate(340.689 211.16)">
            <path id="heart" d="M2.715,4.933c.356-.2,2.715-1.57,2.715-3.43A1.5,1.5,0,0,0,4.025,0,1.409,1.409,0,0,0,2.8.717a.1.1,0,0,1-.169,0A1.409,1.409,0,0,0,1.406,0,1.5,1.5,0,0,0,0,1.5c0,1.86,2.359,3.233,2.715,3.43Zm0,0" transform="translate(0 2.078) rotate(-22.5)" fill="#e15757"/>
        </g>
        <g id="Group_818" data-name="Group 818" transform="translate(348.689 211.16)">
            <path id="heart-2" data-name="heart" d="M2.715,0c.356.2,2.716,1.57,2.716,3.43a1.5,1.5,0,0,1-1.406,1.5A1.409,1.409,0,0,1,2.8,4.216a.1.1,0,0,0-.169,0,1.409,1.409,0,0,1-1.225.717A1.5,1.5,0,0,1,0,3.43C0,1.57,2.359.2,2.715,0Zm0,0" transform="translate(5.018 6.636) rotate(-157.5)" fill="#e15757"/>
        </g>
    </g>
    <symbol id="icon-angry">
        <path d="M15.877 6.124l-3.877 3.876-3.877-3.876 1.124-1.124 2.753 2.753 2.754-2.753 1.123 1.124zm-3.877-4.124c5.514 0 10 4.486 10 10s-4.486 10-10 10-10-4.486-10-10 4.486-10 10-10zm0-2c-6.627 0-12 5.373-12 12s5.373 12 12 12 12-5.373 12-12-5.373-12-12-12zm.001 14c-2.332 0-4.145 1.636-5.093 2.797l.471.58c1.286-.819 2.732-1.308 4.622-1.308s3.336.489 4.622 1.308l.471-.58c-.948-1.161-2.761-2.797-5.093-2.797zm-3.501-5c-.828 0-1.5.671-1.5 1.5s.672 1.5 1.5 1.5 1.5-.671 1.5-1.5-.672-1.5-1.5-1.5zm7 0c-.828 0-1.5.671-1.5 1.5s.672 1.5 1.5 1.5 1.5-.671 1.5-1.5-.672-1.5-1.5-1.5z"/>
    </symbol>
    <symbol id="icon-neutral">
        <path d="M12 2c5.514 0 10 4.486 10 10s-4.486 10-10 10-10-4.486-10-10 4.486-10 10-10zm0-2c-6.627 0-12 5.373-12 12s5.373 12 12 12 12-5.373 12-12-5.373-12-12-12zm4 17h-8v-2h8v2zm-7.5-9c-.828 0-1.5.671-1.5 1.5s.672 1.5 1.5 1.5 1.5-.671 1.5-1.5-.672-1.5-1.5-1.5zm7 0c-.828 0-1.5.671-1.5 1.5s.672 1.5 1.5 1.5 1.5-.671 1.5-1.5-.672-1.5-1.5-1.5z"/>
    </symbol>
    <symbol id="not-allowed">
        <path d="M12 0c-6.627 0-12 5.373-12 12s5.373 12 12 12 12-5.373 12-12-5.373-12-12-12zm10 12c0 2.397-.85 4.6-2.262 6.324l-14.062-14.062c1.724-1.412 3.927-2.262 6.324-2.262 5.514 0 10 4.486 10 10zm-20 0c0-2.397.85-4.6 2.262-6.324l14.062 14.062c-1.724 1.412-3.927 2.262-6.324 2.262-5.514 0-10-4.486-10-10z"/>
    </symbol>
    <g id="error_icon" data-name="Error Icon" transform="translate(-776 -81)">
        <g id="Cloud" transform="translate(22.707 4)">
            <path id="Polygon_1" data-name="Polygon 1" d="M30.244,7.518a5,5,0,0,1,8.664,0L64.833,52.5A5,5,0,0,1,60.5,60H8.652A5,5,0,0,1,4.32,52.5Z" transform="translate(759.293 77)" fill="rgba(234,67,53,0.75)"/>
            <g id="Union_4" data-name="Union 4" transform="translate(753.293 106)" fill="#fff">
                <path d="M 29.89642333984375 18 L 5.10727071762085 18 L 4.838150024414063 17.96628952026367 C 2.650049924850464 17.69218063354492 1 15.80266952514648 1 13.571120262146 C 1 11.54712963104248 2.353919982910156 9.783260345458984 4.292479991912842 9.281709671020508 L 5.058509826660156 9.083530426025391 L 5.041790008544922 8.292449951171875 C 5.040740013122559 8.24275016784668 5.040140151977539 8.19303035736084 5.040140151977539 8.143320083618164 C 5.040140151977539 4.204480171203613 8.215080261230469 1 12.11760997772217 1 C 14.42329978942871 1 16.59078025817871 2.140029907226563 17.91562080383301 4.049590110778809 L 18.5224494934082 4.924240112304688 L 19.35749053955078 4.263949871063232 C 20.37199020385742 3.4617600440979 21.59180068969727 3.037739992141724 22.88505935668945 3.037739992141724 C 24.31439971923828 3.037739992141724 25.68357086181641 3.571860074996948 26.74036026000977 4.541699886322021 C 27.7923698425293 5.5071702003479 28.44890975952148 6.821119785308838 28.58902931213379 8.241490364074707 L 28.6779899597168 9.143320083618164 L 29.58419990539551 9.143320083618164 L 29.61758041381836 9.143320083618164 C 32.03404998779297 9.143320083618164 34 11.12961959838867 34 13.571120262146 C 34 15.80173015594482 32.35086059570313 17.69127082824707 30.16395950317383 17.96635055541992 L 29.89642333984375 18 Z" stroke="none"/>
                <path d="M 29.83380508422852 17 L 30.03915977478027 16.97417068481445 C 31.72710990905762 16.76185035705566 33 15.29885959625244 33 13.571120262146 C 33 11.68101978302002 31.48265075683594 10.14332008361816 29.61758041381836 10.14332008361816 L 29.58419990539551 10.14332008361816 L 27.77178955078125 10.14332008361816 L 27.5938606262207 8.339659690856934 C 27.47793006896973 7.164490222930908 26.93469047546387 6.077340126037598 26.06419944763184 5.278460025787354 C 25.19239044189453 4.478370189666748 24.06335067749023 4.037740230560303 22.88505935668945 4.037740230560303 C 21.81920051574707 4.037740230560303 20.81386947631836 4.387199878692627 19.97773933410645 5.048349857330322 L 18.30767059326172 6.368939876556396 L 17.0939998626709 4.619619846343994 C 15.9559497833252 2.979300022125244 14.09562015533447 2 12.11760997772217 2 C 8.766480445861816 2 6.040140151977539 4.755879878997803 6.040140151977539 8.143320083618164 C 6.040140151977539 8.185990333557129 6.04065990447998 8.228650093078613 6.041560173034668 8.271309852600098 L 6.075019836425781 9.853460311889648 L 4.542960166931152 10.24983978271484 C 3.045700073242188 10.63720989227295 2 12.00296974182129 2 13.571120262146 C 2 15.29953956604004 3.273580074310303 16.76247978210449 4.96245002746582 16.97403907775879 L 5.169680595397949 17 L 29.83380508422852 17 M 30.28875923156738 19 L 4.713850021362305 19 L 4.713850021362305 18.95853042602539 C 2.056390047073364 18.62562942504883 0 16.34122085571289 0 13.571120262146 C 0 11.04004001617432 1.717530012130737 8.914979934692383 4.042009830474854 8.313590049743652 C 4.040810108184814 8.256839752197266 4.040140151977539 8.200079917907715 4.040140151977539 8.143320083618164 C 4.040140151977539 3.646539926528931 7.654769897460938 0 12.11760997772217 0 C 14.8570499420166 0 17.27726936340332 1.375229954719543 18.73723983764648 3.479549884796143 C 19.88013076782227 2.575829982757568 21.32020950317383 2.037739992141724 22.88505935668945 2.037739992141724 C 26.37491989135742 2.037739992141724 29.24600982666016 4.715069770812988 29.58419990539551 8.143320083618164 C 29.5952205657959 8.143320083618164 29.60650062561035 8.143320083618164 29.61758041381836 8.143320083618164 C 32.58934020996094 8.143320083618164 35 10.57289981842041 35 13.571120262146 C 35 16.34122085571289 32.94401931762695 18.62454032897949 30.28875923156738 18.95853042602539 L 30.28875923156738 19 Z" stroke="none" fill="#707070"/>
            </g>
            <path id="Path_381" data-name="Path 381" d="M2459.5-15022.889s-.211-4.275,3.906-5.279" transform="translate(-1699.377 15137.447)" fill="#fff" stroke="#707070" stroke-width="1"/>
        </g>
        <g id="Cloud-2" data-name="Cloud" transform="translate(75.154 12)">
            <g id="Union_4-2" data-name="Union 4" transform="translate(752.846 106)" fill="#fff">
                <path d="M 25.61566162109375 15 L 4.387354850769043 15 L 4.162398815155029 14.97231960296631 C 2.359498977661133 14.75049018859863 0.99993896484375 13.22706985473633 0.99993896484375 11.42870998382568 C 0.99993896484375 9.797820091247559 2.114748954772949 8.375189781188965 3.710958957672119 7.969130039215088 L 4.480808734893799 7.773290157318115 L 4.464199066162109 6.979100227355957 C 4.463358879089355 6.939050197601318 4.462829113006592 6.898159980773926 4.462829113006592 6.856450080871582 C 4.462829113006592 3.627190113067627 7.120139122009277 1 10.38640880584717 1 C 12.31909942626953 1 14.13486862182617 1.937059998512268 15.24357891082764 3.506639957427979 L 15.84723854064941 4.36122989654541 L 16.67365837097168 3.719540119171143 C 17.51932907104492 3.062900066375732 18.53665924072266 2.715820074081421 19.61565971374512 2.715820074081421 C 20.80817985534668 2.715820074081421 21.94976806640625 3.152980089187622 22.83013916015625 3.94677996635437 C 23.70254898071289 4.733399868011475 24.24687957763672 5.802579879760742 24.36285972595215 6.95734977722168 L 24.45324897766113 7.857419967651367 L 25.35784912109375 7.857419967651367 C 25.37310981750488 7.857419967651367 25.38850975036621 7.857085227966309 25.40397453308105 7.856491565704346 C 27.38846588134766 7.865843296051025 28.99993896484375 9.464731216430664 28.99993896484375 11.42870998382568 C 28.99993896484375 13.2262601852417 27.64106941223145 14.74971008300781 25.83908843994141 14.97239017486572 L 25.61566162109375 15 Z" stroke="none"/>
                <path d="M 25.55411911010742 14 L 25.71644973754883 13.97994041442871 C 27.01824951171875 13.81906986236572 27.99993896484375 12.72227954864502 27.99993896484375 11.42870998382568 C 27.99993896484375 10.02005577087402 26.84358978271484 8.872239112854004 25.4160213470459 8.856612205505371 C 25.39653587341309 8.857141494750977 25.37712669372559 8.857419967651367 25.35784912109375 8.857419967651367 L 23.54864883422852 8.857419967651367 L 23.36785888671875 7.05728006362915 C 23.27676963806152 6.15024995803833 22.84797859191895 5.309340000152588 22.16048812866211 4.689459800720215 C 21.46415901184082 4.061600208282471 20.56038856506348 3.715820074081421 19.61565971374512 3.715820074081421 C 18.76081848144531 3.715820074081421 17.95556831359863 3.990230083465576 17.28694915771484 4.509389877319336 L 15.63412857055664 5.792769908905029 L 14.42680931091309 4.083600044250488 C 13.50520896911621 2.778909921646118 11.99477863311768 2 10.38640880584717 2 C 7.671538829803467 2 5.462829113006592 4.178589820861816 5.462829113006592 6.856450080871582 C 5.462829113006592 6.891049861907959 5.4632887840271 6.924970149993896 5.46397876739502 6.958189964294434 L 5.497189044952393 8.54658031463623 L 3.957499027252197 8.93826961517334 C 2.804919004440308 9.231470108032227 1.99993896484375 10.25557994842529 1.99993896484375 11.42870998382568 C 1.99993896484375 12.72282028198242 2.982099056243896 13.81956005096436 4.284519195556641 13.97980976104736 L 4.448610782623291 14 L 25.55411911010742 14 M 25.96172904968262 16 L 4.040278911590576 16 L 4.040278911590576 15.96483993530273 C 1.762448906898499 15.6845703125 -6.103515625e-05 13.76074028015137 -6.103515625e-05 11.42870998382568 C -6.103515625e-05 9.296879768371582 1.472048997879028 7.506840229034424 3.464418888092041 7 C 3.463438987731934 6.953129768371582 3.462828874588013 6.905270099639893 3.462828874588013 6.856450080871582 C 3.462828874588013 3.071290016174316 6.561159133911133 0 10.38640880584717 0 C 12.73449897766113 0 14.80901908874512 1.158200025558472 16.06035804748535 2.929689884185791 C 17.04009819030762 2.168950080871582 18.27434921264648 1.715819954872131 19.61565971374512 1.715819954872131 C 22.60699844360352 1.715819954872131 25.06792831420898 3.970700025558472 25.35784912109375 6.857419967651367 C 25.36724853515625 6.857419967651367 25.37688827514648 6.856450080871582 25.38640975952148 6.856450080871582 C 27.93365859985352 6.856450080871582 29.99993896484375 8.9033203125 29.99993896484375 11.42870998382568 C 29.99993896484375 13.76074028015137 28.23766899108887 15.68358993530273 25.96172904968262 15.96483993530273 L 25.96172904968262 16 Z" stroke="none" fill="#707070"/>
            </g>
            <path id="Path_381-2" data-name="Path 381" d="M2459.5-15023.7a4.413,4.413,0,0,1,3.3-4.464" transform="translate(-1700.472 15136.94)" fill="#fff" stroke="#707070" stroke-width="1"/>
        </g>
        <text id="_" data-name="!" transform="translate(812 132)" fill="#fff" font-size="36" font-family="Roboto-Bold, Roboto" font-weight="700">
            <tspan x="0" y="0">!</tspan>
        </text>
        <g id="Lines" transform="translate(-7)">
            <line id="Line_1" data-name="Line 1" x2="9" transform="translate(830.5 103.5)" fill="none" stroke="#fff" stroke-width="1"/>
            <line id="Line_2" data-name="Line 2" x2="9" transform="translate(834.5 101.5)" fill="none" stroke="#fff" stroke-width="1"/>
            <line id="Line_3" data-name="Line 3" x2="9" transform="translate(837.5 105.5)" fill="none" stroke="#fff" stroke-width="1"/>
            <line id="Line_4" data-name="Line 4" x2="2" transform="translate(833.5 105.5)" fill="none" stroke="#fff" stroke-width="1"/>
        </g>
        <g id="Lines-2" data-name="Lines" transform="translate(-47 31)">
            <line id="Line_1-2" data-name="Line 1" x2="9" transform="translate(830.5 103.5)" fill="none" stroke="#fff" stroke-width="1"/>
            <line id="Line_2-2" data-name="Line 2" x2="9" transform="translate(834.5 101.5)" fill="none" stroke="#fff" stroke-width="1"/>
            <line id="Line_3-2" data-name="Line 3" x2="9" transform="translate(837.5 105.5)" fill="none" stroke="#fff" stroke-width="1"/>
            <line id="Line_4-2" data-name="Line 4" x2="2" transform="translate(833.5 105.5)" fill="none" stroke="#fff" stroke-width="1"/>
        </g>
    </g>
    <g id="info_icon" data-name="Info Icon" transform="translate(-776 -89)">
        <g id="Cloud" transform="translate(22.707 4)">
            <circle id="Ellipse_8" data-name="Ellipse 8" cx="29" cy="29" r="29" transform="translate(766.293 85)" fill="rgba(66,133,244,0.75)"/>
            <g id="Union_4" data-name="Union 4" transform="translate(753.293 106)" fill="#fff">
                <path d="M 29.89642333984375 18 L 5.10727071762085 18 L 4.838150024414063 17.96628952026367 C 2.650049924850464 17.69218063354492 1 15.80266952514648 1 13.571120262146 C 1 11.54712963104248 2.353919982910156 9.783260345458984 4.292479991912842 9.281709671020508 L 5.058509826660156 9.083530426025391 L 5.041790008544922 8.292449951171875 C 5.040740013122559 8.24275016784668 5.040140151977539 8.19303035736084 5.040140151977539 8.143320083618164 C 5.040140151977539 4.204480171203613 8.215080261230469 1 12.11760997772217 1 C 14.42329978942871 1 16.59078025817871 2.140029907226563 17.91562080383301 4.049590110778809 L 18.5224494934082 4.924240112304688 L 19.35749053955078 4.263949871063232 C 20.37199020385742 3.4617600440979 21.59180068969727 3.037739992141724 22.88505935668945 3.037739992141724 C 24.31439971923828 3.037739992141724 25.68357086181641 3.571860074996948 26.74036026000977 4.541699886322021 C 27.7923698425293 5.5071702003479 28.44890975952148 6.821119785308838 28.58902931213379 8.241490364074707 L 28.6779899597168 9.143320083618164 L 29.58419990539551 9.143320083618164 L 29.61758041381836 9.143320083618164 C 32.03404998779297 9.143320083618164 34 11.12961959838867 34 13.571120262146 C 34 15.80173015594482 32.35086059570313 17.69127082824707 30.16395950317383 17.96635055541992 L 29.89642333984375 18 Z" stroke="none"/>
                <path d="M 29.83380508422852 17 L 30.03915977478027 16.97417068481445 C 31.72710990905762 16.76185035705566 33 15.29885959625244 33 13.571120262146 C 33 11.68101978302002 31.48265075683594 10.14332008361816 29.61758041381836 10.14332008361816 L 29.58419990539551 10.14332008361816 L 27.77178955078125 10.14332008361816 L 27.5938606262207 8.339659690856934 C 27.47793006896973 7.164490222930908 26.93469047546387 6.077340126037598 26.06419944763184 5.278460025787354 C 25.19239044189453 4.478370189666748 24.06335067749023 4.037740230560303 22.88505935668945 4.037740230560303 C 21.81920051574707 4.037740230560303 20.81386947631836 4.387199878692627 19.97773933410645 5.048349857330322 L 18.30767059326172 6.368939876556396 L 17.0939998626709 4.619619846343994 C 15.9559497833252 2.979300022125244 14.09562015533447 2 12.11760997772217 2 C 8.766480445861816 2 6.040140151977539 4.755879878997803 6.040140151977539 8.143320083618164 C 6.040140151977539 8.185990333557129 6.04065990447998 8.228650093078613 6.041560173034668 8.271309852600098 L 6.075019836425781 9.853460311889648 L 4.542960166931152 10.24983978271484 C 3.045700073242188 10.63720989227295 2 12.00296974182129 2 13.571120262146 C 2 15.29953956604004 3.273580074310303 16.76247978210449 4.96245002746582 16.97403907775879 L 5.169680595397949 17 L 29.83380508422852 17 M 30.28875923156738 19 L 4.713850021362305 19 L 4.713850021362305 18.95853042602539 C 2.056390047073364 18.62562942504883 0 16.34122085571289 0 13.571120262146 C 0 11.04004001617432 1.717530012130737 8.914979934692383 4.042009830474854 8.313590049743652 C 4.040810108184814 8.256839752197266 4.040140151977539 8.200079917907715 4.040140151977539 8.143320083618164 C 4.040140151977539 3.646539926528931 7.654769897460938 0 12.11760997772217 0 C 14.8570499420166 0 17.27726936340332 1.375229954719543 18.73723983764648 3.479549884796143 C 19.88013076782227 2.575829982757568 21.32020950317383 2.037739992141724 22.88505935668945 2.037739992141724 C 26.37491989135742 2.037739992141724 29.24600982666016 4.715069770812988 29.58419990539551 8.143320083618164 C 29.5952205657959 8.143320083618164 29.60650062561035 8.143320083618164 29.61758041381836 8.143320083618164 C 32.58934020996094 8.143320083618164 35 10.57289981842041 35 13.571120262146 C 35 16.34122085571289 32.94401931762695 18.62454032897949 30.28875923156738 18.95853042602539 L 30.28875923156738 19 Z" stroke="none" fill="#707070"/>
            </g>
            <path id="Path_381" data-name="Path 381" d="M2459.5-15022.889s-.211-4.275,3.906-5.279" transform="translate(-1699.377 15137.447)" fill="#fff" stroke="#707070" stroke-width="1"/>
        </g>
        <g id="Cloud-2" data-name="Cloud" transform="translate(75.154 12)">
            <g id="Union_4-2" data-name="Union 4" transform="translate(752.846 106)" fill="#fff">
                <path d="M 25.61566162109375 15 L 4.387354850769043 15 L 4.162398815155029 14.97231960296631 C 2.359498977661133 14.75049018859863 0.99993896484375 13.22706985473633 0.99993896484375 11.42870998382568 C 0.99993896484375 9.797820091247559 2.114748954772949 8.375189781188965 3.710958957672119 7.969130039215088 L 4.480808734893799 7.773290157318115 L 4.464199066162109 6.979100227355957 C 4.463358879089355 6.939050197601318 4.462829113006592 6.898159980773926 4.462829113006592 6.856450080871582 C 4.462829113006592 3.627190113067627 7.120139122009277 1 10.38640880584717 1 C 12.31909942626953 1 14.13486862182617 1.937059998512268 15.24357891082764 3.506639957427979 L 15.84723854064941 4.36122989654541 L 16.67365837097168 3.719540119171143 C 17.51932907104492 3.062900066375732 18.53665924072266 2.715820074081421 19.61565971374512 2.715820074081421 C 20.80817985534668 2.715820074081421 21.94976806640625 3.152980089187622 22.83013916015625 3.94677996635437 C 23.70254898071289 4.733399868011475 24.24687957763672 5.802579879760742 24.36285972595215 6.95734977722168 L 24.45324897766113 7.857419967651367 L 25.35784912109375 7.857419967651367 C 25.37310981750488 7.857419967651367 25.38850975036621 7.857085227966309 25.40397453308105 7.856491565704346 C 27.38846588134766 7.865843296051025 28.99993896484375 9.464731216430664 28.99993896484375 11.42870998382568 C 28.99993896484375 13.2262601852417 27.64106941223145 14.74971008300781 25.83908843994141 14.97239017486572 L 25.61566162109375 15 Z" stroke="none"/>
                <path d="M 25.55411911010742 14 L 25.71644973754883 13.97994041442871 C 27.01824951171875 13.81906986236572 27.99993896484375 12.72227954864502 27.99993896484375 11.42870998382568 C 27.99993896484375 10.02005577087402 26.84358978271484 8.872239112854004 25.4160213470459 8.856612205505371 C 25.39653587341309 8.857141494750977 25.37712669372559 8.857419967651367 25.35784912109375 8.857419967651367 L 23.54864883422852 8.857419967651367 L 23.36785888671875 7.05728006362915 C 23.27676963806152 6.15024995803833 22.84797859191895 5.309340000152588 22.16048812866211 4.689459800720215 C 21.46415901184082 4.061600208282471 20.56038856506348 3.715820074081421 19.61565971374512 3.715820074081421 C 18.76081848144531 3.715820074081421 17.95556831359863 3.990230083465576 17.28694915771484 4.509389877319336 L 15.63412857055664 5.792769908905029 L 14.42680931091309 4.083600044250488 C 13.50520896911621 2.778909921646118 11.99477863311768 2 10.38640880584717 2 C 7.671538829803467 2 5.462829113006592 4.178589820861816 5.462829113006592 6.856450080871582 C 5.462829113006592 6.891049861907959 5.4632887840271 6.924970149993896 5.46397876739502 6.958189964294434 L 5.497189044952393 8.54658031463623 L 3.957499027252197 8.93826961517334 C 2.804919004440308 9.231470108032227 1.99993896484375 10.25557994842529 1.99993896484375 11.42870998382568 C 1.99993896484375 12.72282028198242 2.982099056243896 13.81956005096436 4.284519195556641 13.97980976104736 L 4.448610782623291 14 L 25.55411911010742 14 M 25.96172904968262 16 L 4.040278911590576 16 L 4.040278911590576 15.96483993530273 C 1.762448906898499 15.6845703125 -6.103515625e-05 13.76074028015137 -6.103515625e-05 11.42870998382568 C -6.103515625e-05 9.296879768371582 1.472048997879028 7.506840229034424 3.464418888092041 7 C 3.463438987731934 6.953129768371582 3.462828874588013 6.905270099639893 3.462828874588013 6.856450080871582 C 3.462828874588013 3.071290016174316 6.561159133911133 0 10.38640880584717 0 C 12.73449897766113 0 14.80901908874512 1.158200025558472 16.06035804748535 2.929689884185791 C 17.04009819030762 2.168950080871582 18.27434921264648 1.715819954872131 19.61565971374512 1.715819954872131 C 22.60699844360352 1.715819954872131 25.06792831420898 3.970700025558472 25.35784912109375 6.857419967651367 C 25.36724853515625 6.857419967651367 25.37688827514648 6.856450080871582 25.38640975952148 6.856450080871582 C 27.93365859985352 6.856450080871582 29.99993896484375 8.9033203125 29.99993896484375 11.42870998382568 C 29.99993896484375 13.76074028015137 28.23766899108887 15.68358993530273 25.96172904968262 15.96483993530273 L 25.96172904968262 16 Z" stroke="none" fill="#707070"/>
            </g>
            <path id="Path_381-2" data-name="Path 381" d="M2459.5-15023.7a4.413,4.413,0,0,1,3.3-4.464" transform="translate(-1700.472 15136.94)" fill="#fff" stroke="#707070" stroke-width="1"/>
        </g>
        <text id="i" transform="translate(813 131)" fill="#fff" font-size="36" font-family="Roboto-Bold, Roboto" font-weight="700">
            <tspan x="0" y="0">i</tspan>
        </text>
        <g id="Lines">
            <line id="Line_1" data-name="Line 1" x2="9" transform="translate(830.5 103.5)" fill="none" stroke="#fff" stroke-width="1"/>
            <line id="Line_2" data-name="Line 2" x2="9" transform="translate(834.5 101.5)" fill="none" stroke="#fff" stroke-width="1"/>
            <line id="Line_3" data-name="Line 3" x2="9" transform="translate(837.5 105.5)" fill="none" stroke="#fff" stroke-width="1"/>
            <line id="Line_4" data-name="Line 4" x2="2" transform="translate(833.5 105.5)" fill="none" stroke="#fff" stroke-width="1"/>
        </g>
        <g id="Lines-2" data-name="Lines" transform="translate(-38 33)">
            <line id="Line_1-2" data-name="Line 1" x2="9" transform="translate(830.5 103.5)" fill="none" stroke="#fff" stroke-width="1"/>
            <line id="Line_2-2" data-name="Line 2" x2="9" transform="translate(834.5 101.5)" fill="none" stroke="#fff" stroke-width="1"/>
            <line id="Line_3-2" data-name="Line 3" x2="9" transform="translate(837.5 105.5)" fill="none" stroke="#fff" stroke-width="1"/>
            <line id="Line_4-2" data-name="Line 4" x2="2" transform="translate(833.5 105.5)" fill="none" stroke="#fff" stroke-width="1"/>
        </g>
    </g>
    <g id="unsupported_browser" data-name="unsupported browser" transform="translate(0 -1)">
        <g id="Group" transform="translate(0 1)">
            <path id="Oval_322_copy" data-name="Oval 322 copy" d="M117.6,209a10.31,10.31,0,0,0,.766-3.2h-3.186a19,19,0,0,1-.394,3.2Zm.766-4.8a10.31,10.31,0,0,0-.766-3.2H114.79a19,19,0,0,1,.394,3.2Zm-1.6-4.8h-2.4a12.683,12.683,0,0,0-1.882-3.784A10.44,10.44,0,0,1,116.765,199.4Zm-13.253-3.784a10.439,10.439,0,0,0-4.277,3.784h2.4A12.686,12.686,0,0,1,103.512,195.616ZM98.4,201a10.338,10.338,0,0,0-.767,3.2h3.185a19.083,19.083,0,0,1,.394-3.2Zm-.767,4.8A10.338,10.338,0,0,0,98.4,209h2.813a19.082,19.082,0,0,1-.394-3.2Zm1.6,4.8a10.439,10.439,0,0,0,4.277,3.784,12.686,12.686,0,0,1-1.882-3.784ZM96,205v-.8h.026A12,12,0,0,1,107.2,193.026V193h1.6v.026A12,12,0,0,1,119.974,204.2H120v1.6h-.026A12,12,0,0,1,108.8,216.974V217h-1.6v-.026A12,12,0,0,1,96.026,205.8H96Zm16.488,9.384a10.441,10.441,0,0,0,4.277-3.784h-2.4A12.683,12.683,0,0,1,112.488,214.384Zm.232-14.984c-.859-2.491-2.274-4.258-3.92-4.694V199.4Zm-5.52-4.694c-1.646.437-3.061,2.2-3.92,4.694h3.92v-4.694Zm0,15.894v4.694c-1.646-.437-3.061-2.2-3.92-4.694Zm1.6,4.694V210.6h3.92C111.861,213.091,110.446,214.858,108.8,215.294ZM113.171,209H108.8v-3.2h4.784A18.03,18.03,0,0,1,113.171,209Zm-5.971-3.2V209h-4.371a18.03,18.03,0,0,1-.413-3.2Zm6.384-1.6H108.8V201h4.371A18.031,18.031,0,0,1,113.584,204.2ZM107.2,201v3.2h-4.784a18.031,18.031,0,0,1,.413-3.2Zm0,0" transform="translate(-96 -193)" fill="#fff" fill-rule="evenodd"/>
        </g>
    </g>
    <path id="close_icon" data-name="Close Icon" d="M9.707,9l7.147-7.146a.5.5,0,1,0-.707-.707L9,8.293,1.854,1.146a.5.5,0,0,0-.707.707L8.293,9,1.146,16.146a.5.5,0,1,0,.707.707L9,9.707l7.146,7.146a.5.5,0,1,0,.707-.707Z" transform="translate(-1 -1)" fill="#fff"/>
</svg>
